<svg preserveAspectRatio="none" width="100%" height="100%" overflow="visible" style="display: block;" viewBox="0 0 30.7023 30.7023" fill="none" xmlns="http://www.w3.org/2000/svg">
<g id="BehanceLogo" clip-path="url(#clip0_0_8)">
<g id="Vector">
</g>
<path id="Vector_2" d="M3.8376 14.8713H10.7936C11.8751 14.8713 12.9122 15.3009 13.6769 16.0656C14.4416 16.8304 14.8712 17.8675 14.8712 18.949C14.8712 20.0304 14.4416 21.0676 13.6769 21.8323C12.9122 22.597 11.8751 23.0266 10.7936 23.0266H3.8376V7.67548H10.3139C11.2681 7.67548 12.1832 8.05454 12.858 8.72929C13.5327 9.40403 13.9118 10.3192 13.9118 11.2734C13.9118 12.2276 13.5327 13.1428 12.858 13.8175C12.1832 14.4923 11.2681 14.8713 10.3139 14.8713" stroke="#D4D4D4" stroke-width="2.87834" stroke-linecap="round" stroke-linejoin="round"/>
<path id="Vector_3" d="M20.1483 9.11438H27.8239" stroke="#D4D4D4" stroke-width="2.87834" stroke-linecap="round" stroke-linejoin="round"/>
<path id="Vector_4" d="M26.0789 22.5472C25.142 23.0014 24.0828 23.1385 23.0611 22.9378C22.0395 22.737 21.1109 22.2093 20.4155 21.4344C19.7202 20.6594 19.2958 19.6793 19.2065 18.6419C19.1173 17.6046 19.3679 16.5663 19.9206 15.684C20.4733 14.8016 21.2981 14.123 22.2704 13.7506C23.2427 13.3782 24.3098 13.3323 25.3105 13.6198C26.3112 13.9072 27.1913 14.5124 27.8178 15.344C28.4442 16.1757 28.7832 17.1885 28.7833 18.2297H19.1889" stroke="#D4D4D4" stroke-width="2.87834" stroke-linecap="round" stroke-linejoin="round"/>
</g>
<defs>
<clipPath id="clip0_0_8">
<rect width="30.7023" height="30.7023" fill="white"/>
</clipPath>
</defs>
</svg>
