<svg preserveAspectRatio="none" width="100%" height="100%" overflow="visible" style="display: block;" viewBox="0 0 20.4074 20.4074" fill="none" xmlns="http://www.w3.org/2000/svg">
<g id="Icon">
<path id="Vector" d="M17.0062 8.50319C17.0062 12.7488 12.2963 17.1704 10.7148 18.536C10.5674 18.6468 10.3881 18.7067 10.2037 18.7067C10.0194 18.7067 9.84002 18.6468 9.69268 18.536C8.11111 17.1704 3.40124 12.7488 3.40124 8.50319C3.40124 6.69906 4.11793 4.96882 5.39364 3.69311C6.66935 2.4174 8.39959 1.70071 10.2037 1.70071C12.0079 1.70071 13.7381 2.4174 15.0138 3.69311C16.2895 4.96882 17.0062 6.69906 17.0062 8.50319Z" stroke="#171717" stroke-width="1.70062" stroke-linecap="round" stroke-linejoin="round"/>
<path id="Vector_2" d="M10.2038 11.0537C11.6126 11.0537 12.7547 9.91162 12.7547 8.50278C12.7547 7.09394 11.6126 5.95185 10.2038 5.95185C8.79493 5.95185 7.65284 7.09394 7.65284 8.50278C7.65284 9.91162 8.79493 11.0537 10.2038 11.0537Z" stroke="#171717" stroke-width="1.70062" stroke-linecap="round" stroke-linejoin="round"/>
</g>
</svg>
