<svg preserveAspectRatio="none" width="100%" height="100%" overflow="visible" style="display: block;" viewBox="0 0 20.4074 20.4074" fill="none" xmlns="http://www.w3.org/2000/svg">
<g id="Icon">
<path id="Vector" d="M13.605 6.80273C14.9581 6.80273 16.2557 7.34025 17.2125 8.29703C18.1693 9.25382 18.7068 10.5515 18.7068 11.9046V17.8568H15.3056V11.9046C15.3056 11.4536 15.1264 11.021 14.8075 10.7021C14.4885 10.3831 14.056 10.204 13.605 10.204C13.1539 10.204 12.7214 10.3831 12.4024 10.7021C12.0835 11.021 11.9043 11.4536 11.9043 11.9046V17.8568H8.50309V11.9046C8.50309 10.5515 9.04061 9.25382 9.99739 8.29703C10.9542 7.34025 12.2519 6.80273 13.605 6.80273Z" stroke="#D4D4D4" stroke-width="1.70062" stroke-linecap="round" stroke-linejoin="round"/>
<path id="Vector_2" d="M5.10196 7.65283H1.70072V17.8566H5.10196V7.65283Z" stroke="#D4D4D4" stroke-width="1.70062" stroke-linecap="round" stroke-linejoin="round"/>
<path id="Vector_3" d="M3.40134 5.10211C4.34056 5.10211 5.10196 4.34072 5.10196 3.40149C5.10196 2.46227 4.34056 1.70087 3.40134 1.70087C2.46211 1.70087 1.70072 2.46227 1.70072 3.40149C1.70072 4.34072 2.46211 5.10211 3.40134 5.10211Z" stroke="#D4D4D4" stroke-width="1.70062" stroke-linecap="round" stroke-linejoin="round"/>
</g>
</svg>
