<svg preserveAspectRatio="none" width="100%" height="100%" overflow="visible" style="display: block;" viewBox="0 0 20.4074 20.4074" fill="none" xmlns="http://www.w3.org/2000/svg">
<g id="Icon">
<path id="Vector" d="M18.7069 14.3873V16.9383C18.7079 17.1751 18.6594 17.4095 18.5645 17.6265C18.4696 17.8435 18.3305 18.0382 18.156 18.1983C17.9815 18.3584 17.7755 18.4803 17.5511 18.5562C17.3268 18.632 17.0891 18.6602 16.8532 18.6389C14.2367 18.3546 11.7233 17.4605 9.51507 16.0284C7.46057 14.7229 5.71872 12.9811 4.41321 10.9266C2.97617 8.7083 2.08186 6.1827 1.80276 3.5544C1.78151 3.31926 1.80945 3.08227 1.88481 2.85853C1.96017 2.63478 2.08129 2.42918 2.24047 2.2548C2.39964 2.08043 2.59338 1.94112 2.80935 1.84572C3.02531 1.75033 3.25878 1.70095 3.49487 1.70072H6.0458C6.45846 1.69666 6.85852 1.84279 7.17141 2.11188C7.4843 2.38096 7.68867 2.75464 7.74642 3.16326C7.85409 3.97961 8.05377 4.78117 8.34164 5.55263C8.45604 5.85698 8.4808 6.18774 8.41299 6.50572C8.34517 6.82371 8.18762 7.11559 7.959 7.34678L6.87911 8.42668C8.08957 10.5555 9.85218 12.3181 11.981 13.5285L13.0609 12.4486C13.2921 12.22 13.5839 12.0625 13.9019 11.9947C14.2199 11.9268 14.5507 11.9516 14.855 12.066C15.6265 12.3539 16.428 12.5536 17.2444 12.6612C17.6574 12.7195 18.0347 12.9275 18.3043 13.2458C18.574 13.5641 18.7173 13.9703 18.7069 14.3873Z" stroke="#171717" stroke-width="1.70062" stroke-linecap="round" stroke-linejoin="round"/>
</g>
</svg>
