<svg preserveAspectRatio="none" width="100%" height="100%" overflow="visible" style="display: block;" viewBox="0 0 50 50" fill="none" xmlns="http://www.w3.org/2000/svg">
<g id="Soheila Tarek Ibrahim - Logo 1">
<path id="Vector" d="M20.4656 19.7281C20.625 18.1719 19.6031 16.1125 17.8 16.35C16.3375 16.5375 14.8656 18.0625 13.3281 18.6406C10.8625 19.7406 7.60933 19.0406 6.24371 16.5906C4.30621 13.3906 6.31246 9.57498 8.85933 7.35623C13.7375 3.0781 20.5781 1.1781 26.8468 2.6031C30.8062 3.68123 37.0906 6.3531 38.3812 10.4594C38.7281 11.7187 38.1218 13.3437 36.9093 14.075C34.8593 15.4 32.3593 14.0531 31.7625 11.8219C31.2593 10.2406 31.2968 8.4781 30.4843 6.99998C27.9781 2.6031 19.825 1.40935 16.3625 5.3406C14.9843 6.8656 14.6531 9.0656 15.9781 10.6062C17.6812 12.5875 20.8562 13.6031 22.7531 15.4781C26.8875 18.6187 26.1593 24.3437 23.9593 28.5094C21.7156 32.8687 16.9062 35.8406 12.0031 35.6281C6.38121 35.4344 2.45308 30.7156 3.02808 25.1312C3.11871 24.325 3.17808 23.325 3.65308 22.6625C4.14996 22.1812 4.61246 23.2156 4.93121 23.625C7.89996 28.8062 19.65 25.6844 20.4625 19.7875V19.7312L20.4656 19.7281Z" fill="black"/>
<path id="Vector_2" d="M43.0844 46.2314C44.0469 46.3814 45.0438 46.0032 45.797 45.4032C46.6938 44.7126 47.2407 43.5845 47.7688 43.2939C48.072 43.2376 47.9876 43.6407 47.8782 44.1282C46.8501 47.4407 41.7657 48.9751 38.2345 48.4782C33.7782 47.7657 32.6719 44.0376 34.1688 40.2314C34.7626 38.3751 36.4657 36.6407 36.8251 34.7501C37.0407 33.1657 35.4907 33.0095 34.5876 34.072C32.7095 36.347 32.6938 39.5564 32.2157 42.3939C31.9126 45.7032 29.6595 49.4345 25.8532 48.2032C22.4876 47.0032 19.9344 43.0532 20.0407 39.5376C20.1813 36.4345 22.7095 34.2314 24.3688 31.7907C26.0126 29.3595 27.272 26.6126 27.8938 23.7157C28.4282 20.4751 28.1501 16.5439 25.9001 13.9439C25.0032 12.9314 23.6845 11.997 22.3095 11.2189C21.4126 10.7001 20.3626 10.1626 19.7407 9.42198C18.0251 7.4626 20.0563 5.06885 22.3501 5.29073C25.5376 5.50635 25.7813 9.08761 26.8126 11.5095C27.2907 12.6095 28.0282 13.5439 28.922 14.3407C29.822 15.147 30.872 15.9095 31.8938 16.5189C33.4095 17.5064 35.4501 17.8595 36.8657 18.9876C39.5688 21.4376 37.7095 25.447 36.0157 27.9595C33.3501 32.2564 29.3095 36.2501 27.322 40.7407C26.822 41.9814 26.5001 43.572 26.8345 44.8689C27.4032 47.0939 29.7313 46.9751 30.6782 45.0157C31.547 43.3064 31.5063 41.3095 31.8282 39.4532C32.4126 34.7782 34.7251 29.1001 40.1501 28.9564C43.3407 28.7814 45.9313 31.2532 45.4876 34.497C45.322 36.0126 44.6376 37.4782 43.7751 38.7782C42.8782 40.1814 41.7251 41.447 41.3095 43.0439C40.8938 44.4376 41.5782 46.022 43.0313 46.2282L43.0844 46.2376V46.2314Z" fill="black"/>
</g>
</svg>
