<svg preserveAspectRatio="none" width="100%" height="100%" overflow="visible" style="display: block;" viewBox="0 0 122.623 122.623" fill="none" xmlns="http://www.w3.org/2000/svg">
<g id="Group">
<path id="Vector" d="M107.295 0H15.3279C11.2627 0 7.36398 1.6149 4.48944 4.48944C1.6149 7.36398 0 11.2627 0 15.3279L0 107.295C0 111.361 1.6149 115.259 4.48944 118.134C7.36398 121.008 11.2627 122.623 15.3279 122.623H107.295C115.756 122.623 122.623 115.756 122.623 107.295V15.3279C122.623 11.2627 121.008 7.36398 118.134 4.48944C115.259 1.6149 111.361 0 107.295 0ZM53.3411 92.8871C53.3411 94.8384 52.5659 96.7098 51.1862 98.0896C49.8064 99.4693 47.935 100.244 45.9837 100.244H23.2984C19.2365 100.244 15.941 96.9439 15.941 92.8871V23.2984C15.941 19.2365 19.2365 15.941 23.2984 15.941H45.9837C50.0456 15.941 53.3411 19.2365 53.3411 23.2984V92.8871ZM106.682 62.2313C106.682 66.2881 103.387 69.5887 99.3248 69.5887H76.6395C72.5776 69.5887 69.2821 66.2881 69.2821 62.2313V23.2984C69.2821 19.2365 72.5827 15.941 76.6395 15.941H99.3248C103.387 15.941 106.682 19.2365 106.682 23.2984V62.2313Z" fill="black"/>
</g>
</svg>
