<svg preserveAspectRatio="none" width="100%" height="100%" overflow="visible" style="display: block;" viewBox="0 0 126.579 123.415" fill="none" xmlns="http://www.w3.org/2000/svg">
<g id="Group">
<path id="Vector" d="M22.4151 0H104.164C116.558 0 126.579 10.0207 126.579 22.4151V101C126.579 113.394 116.558 123.415 104.164 123.415H22.4151C10.0207 123.414 0 113.394 0 100.999V22.4151C0 10.0207 10.0207 0 22.4151 0Z" fill="black"/>
<g id="Group_2">
<path id="Vector_2" d="M28.4803 86.5484V32.2777C28.4803 31.9086 28.6385 31.6975 29.0076 31.6975C29.9043 31.6975 30.748 31.6975 31.9612 31.6448C33.227 31.5922 34.5454 31.5922 35.9694 31.5393C37.3934 31.4864 38.923 31.4866 40.5579 31.4337C42.1928 31.381 43.775 31.381 45.3573 31.381C49.682 31.381 53.2684 31.9084 56.222 33.0159C58.8592 33.9126 61.2852 35.3893 63.2894 37.3406C64.9772 39.0284 66.2957 41.0853 67.1395 43.3531C67.9306 45.5682 68.3526 47.836 68.3526 50.2094C68.3526 54.7452 67.2977 58.4897 65.1881 61.4433C63.0786 64.3968 60.125 66.612 56.6967 67.8778C53.1102 69.1962 49.1546 69.6709 44.8299 69.6709C43.5642 69.6709 42.7204 69.6709 42.1928 69.6182C41.6655 69.5656 40.927 69.5656 39.925 69.5656V86.4955C39.9777 86.8646 39.7141 87.181 39.3448 87.2339H29.1132C28.6911 87.2339 28.4803 87.0231 28.4803 86.5484ZM39.9779 41.8767V59.5977C40.7164 59.6504 41.4019 59.7033 42.0348 59.7033H44.8302C48.4721 59.7033 52.6781 58.8474 55.22 55.9588C57.4077 53.4727 57.4139 48.5426 55.642 45.8325C53.5387 42.6154 49.3324 41.6834 45.7266 41.7714C44.3553 41.7714 43.1424 41.7714 42.1401 41.824C41.0855 41.7711 40.347 41.8238 39.9779 41.8767ZM101.263 56.3803C99.6809 55.5366 97.993 54.9563 96.1999 54.5872C94.2486 54.1652 92.297 53.9017 90.293 53.9017C89.2381 53.849 88.1305 54.0072 87.1285 54.2708C86.443 54.429 85.8627 54.7981 85.4936 55.3257C85.2298 55.7477 85.0716 56.275 85.0716 56.7497C85.0716 57.2244 85.2825 57.699 85.599 58.1211C86.0736 58.7013 86.7065 59.176 87.3921 59.5451C88.6052 60.178 89.871 60.7582 91.1368 61.2855C93.9848 62.2349 96.7273 63.5533 99.2588 65.1355C100.999 66.2431 102.423 67.7198 103.425 69.5131C104.269 71.2009 104.691 73.0467 104.638 74.9454C104.691 77.4243 103.953 79.903 102.582 81.9599C101.105 84.0695 99.048 85.7046 96.6746 86.6539C94.0904 87.7615 90.9259 88.3417 87.1285 88.3417C84.7025 88.3417 82.3292 88.1309 79.9558 87.6562C78.0957 87.3347 76.2866 86.7672 74.5762 85.9684C74.2071 85.7575 73.9433 85.3882 73.996 84.9664V75.7894C73.996 75.6312 74.0486 75.4203 74.2069 75.3148C74.3651 75.2092 74.5233 75.2621 74.6815 75.3674C76.7384 76.5805 78.9009 77.4243 81.2214 77.9516C83.2256 78.479 85.3352 78.7428 87.4447 78.7428C89.449 78.7428 90.873 78.479 91.8223 78.0043C92.6661 77.6352 93.2463 76.7385 93.2463 75.7892C93.2463 75.0507 92.8243 74.3652 91.9806 73.6796C91.1368 72.9941 89.3963 72.2029 86.8118 71.2007C84.122 70.2514 81.6431 68.9856 79.3227 67.4033C77.6878 66.2431 76.3164 64.7135 75.3144 62.9204C74.4707 61.2326 74.0486 59.3868 74.1013 57.5408C74.1013 55.273 74.7342 53.1106 75.8944 51.1592C77.2129 49.0497 79.1644 47.3619 81.4322 46.3069C83.9112 45.0412 87.0227 44.4609 90.7674 44.4609C92.9299 44.4609 95.145 44.6191 97.3072 44.9356C98.8895 45.1465 100.419 45.5685 101.843 46.1487C102.054 46.2014 102.265 46.4125 102.37 46.6234C102.423 46.8343 102.476 47.0454 102.476 47.2563V55.853C102.476 56.0639 102.37 56.275 102.212 56.3803C101.738 56.4859 101.474 56.4859 101.263 56.3803Z" fill="white"/>
</g>
</g>
</svg>
