<svg preserveAspectRatio="none" width="100%" height="100%" overflow="visible" style="display: block;" viewBox="0 0 60.0054 89.6933" fill="none" xmlns="http://www.w3.org/2000/svg">
<g id="Group">
<path id="Vector" d="M30.1078 44.8466C30.1078 36.5907 36.8006 29.8978 45.0566 29.8978C53.3125 29.8978 60.0054 36.5908 60.0054 44.8466C60.0054 53.1028 53.3124 59.7954 45.0566 59.7954C36.8004 59.7954 30.1078 53.1026 30.1078 44.8466Z" fill="white"/>
<path id="Vector_2" d="M0.20993 74.7444C0.20993 66.4884 6.90276 59.7956 15.1587 59.7956L23.1251 55.5897L30.1075 59.7956V74.7444C30.1075 83.0006 23.4147 89.6932 15.1587 89.6932C6.90276 89.6932 0.20993 83.0004 0.20993 74.7444Z" fill="white"/>
<path id="Vector_3" d="M30.1077 0L21.9733 14.1319L30.1077 29.8976H44.8468C53.103 29.8976 59.7956 23.2048 59.7956 14.9488C59.7956 6.69283 53.1028 0 44.8468 0H30.1077Z" fill="white"/>
<path id="Vector_4" d="M5.84126e-05 14.9489C5.84126e-05 23.2049 6.69288 29.8977 14.9489 29.8977L22.8788 32.9606L30.1073 29.8977V0.000107581H14.9487C6.69288 0.000107581 5.84126e-05 6.69293 5.84126e-05 14.9489Z" fill="white"/>
<path id="Vector_5" d="M0.20993 44.8466C0.20993 53.1028 6.90276 59.7954 15.1587 59.7954H30.1075V29.8977H15.1587C6.90276 29.8977 0.20993 36.5907 0.20993 44.8466Z" fill="white"/>
</g>
</svg>
