<svg preserveAspectRatio="none" width="100%" height="100%" overflow="visible" style="display: block;" viewBox="0 0 126.579 123.415" fill="none" xmlns="http://www.w3.org/2000/svg">
<g id="Group">
<path id="Vector" d="M22.4151 0H104.164C116.558 0 126.579 10.0207 126.579 22.4151V101C126.579 113.394 116.558 123.415 104.164 123.415H22.4151C10.0207 123.414 0 113.394 0 100.999V22.4151C0 10.0207 10.0207 0 22.4151 0Z" fill="black"/>
<g id="Group_2">
<path id="Vector_2" d="M61.3378 74.0486H41.7181L37.7099 86.4427C37.6043 86.9173 37.1825 87.2338 36.7079 87.1811H26.7924C26.2122 87.1811 26.054 86.8647 26.2122 86.2318L43.1948 37.3407C43.353 36.8134 43.5112 36.2331 43.7221 35.6002C43.933 34.4927 44.0386 33.3325 44.0386 32.172C43.9859 31.9082 44.1968 31.6447 44.4606 31.5918H58.1205C58.5425 31.5918 58.7533 31.75 58.806 32.0138L78.0566 86.3371C78.2148 86.9173 78.0566 87.1809 77.5293 87.1809H66.5063C66.1372 87.2335 65.7678 86.97 65.6625 86.6006L61.3378 74.0486ZM44.777 63.342H58.1734L51.4224 41.349L44.777 63.342ZM89.5543 40.6107C87.8138 40.6634 86.126 39.9778 84.8602 38.7647C83.6471 37.4463 83.0142 35.7058 83.0671 33.9124C83.0145 32.1193 83.7 30.4315 84.9658 29.2184C86.2316 28.0053 87.9194 27.3724 89.6598 27.3724C91.7167 27.3724 93.299 28.0053 94.4592 29.2184C95.6278 30.4972 96.2521 32.181 96.1997 33.9124C96.2523 35.7056 95.6194 37.446 94.3536 38.7647C93.1408 40.0305 91.3474 40.7161 89.5543 40.6107ZM83.6473 86.39V45.7792C83.6473 45.2519 83.8582 45.0408 84.3329 45.0408H94.7757C95.2503 45.0408 95.4612 45.3045 95.4612 45.7792V86.39C95.4612 86.9702 95.2503 87.2338 94.7757 87.2338H84.4385C83.9109 87.2338 83.6473 86.9173 83.6473 86.39Z" fill="white"/>
</g>
</g>
</svg>
