<svg preserveAspectRatio="none" width="100%" height="100%" overflow="visible" style="display: block;" viewBox="0 0 74.1673 80.6691" fill="none" xmlns="http://www.w3.org/2000/svg">
<g id="Group">
<path id="Vector" d="M74.1673 17.5561L47.9121 2.44452C47.9121 2.44452 43.7587 0 37.0837 0C30.1861 0 26.1811 2.5186 26.1811 2.5186L1.85419 16.3709L38.8637 37.6308V80.5951L63.2647 66.6687C63.2647 66.6687 67.6406 64.2983 70.904 58.5944C73.7965 53.5572 74.1673 48.7423 74.1673 48.7423V17.5561ZM34.562 24.5193C34.562 24.5193 39.9762 23.5563 44.5746 26.149C49.1729 28.8157 51.9171 30.3713 51.9171 30.3713C51.9171 30.3713 51.9171 34.0751 51.9171 39.5568C51.9171 44.0014 48.2088 48.52 48.2088 48.52V32.3714L34.562 24.5193ZM56.0705 60.0019L48.1346 64.5205V60.2241L54.2905 56.6684C60.1497 52.4461 61.1139 46.2237 61.1139 44.0754V24.8897L44.3521 15.3338C44.3521 15.3338 41.7562 13.6301 37.1578 13.6301C32.5595 13.6301 30.0378 15.1857 30.0378 15.1857L24.1044 18.5932L20.396 16.445L28.5544 11.7781C28.5544 11.7781 31.7436 10.0003 37.0837 10.0003C41.9787 10.0003 45.8354 11.9263 45.8354 11.9263L64.8222 22.8896V43.7791C64.9706 46.9644 63.4872 54.8165 56.0705 60.0019Z" fill="white"/>
<path id="Vector_2" d="M1.42439e-05 30.297L25.9585 45.1864V49.631L11.1993 41.1863L1.85419 46.4457L25.8844 60.298V64.5944L0.148349 49.7791C0.222516 51.4829 1.78003 56.8905 4.82088 60.9647C7.86174 65.187 11.3476 66.9649 11.3476 66.9649L35.1553 80.669V39.7788L1.42439e-05 19.63V30.297Z" fill="white"/>
</g>
</svg>
