<svg preserveAspectRatio="none" width="100%" height="100%" overflow="visible" style="display: block;" viewBox="0 0 122.374 122.374" fill="none" xmlns="http://www.w3.org/2000/svg">
<g id="iddEf7lYU8_1777553225647 1" clip-path="url(#clip0_0_15)">
<path id="Vector" d="M105.907 0H16.4669C7.37248 0 0 7.37248 0 16.4669V105.907C0 115.001 7.37248 122.374 16.4669 122.374H105.907C115.001 122.374 122.374 115.001 122.374 105.907V16.4669C122.374 7.37248 115.001 0 105.907 0Z" fill="black"/>
<path id="Vector_2" d="M90.7566 59.2288H76.729C75.3865 59.2288 74.2981 58.1401 74.2981 56.797V32.3514C74.2981 31.786 73.84 31.3276 73.2749 31.3276H66.5808C66.0154 31.3276 65.5572 31.786 65.5572 32.3514V56.797C65.5572 58.1401 64.4691 59.2288 63.1267 59.2288H59.2469C57.9047 59.2288 56.8164 58.1401 56.8164 56.7972V32.3514C56.8164 31.786 56.3582 31.3276 55.7928 31.3276H49.0987C48.5336 31.3276 48.0755 31.786 48.0755 32.3514L48.0752 56.797C48.0752 58.1401 46.9871 59.2288 45.6446 59.2288H31.617C31.0516 59.2288 30.5934 59.6872 30.5934 60.2526V86.1062C30.5934 86.6715 31.0516 87.1299 31.617 87.1299H47.0519C47.617 87.1299 48.0755 86.6715 48.0755 86.1062V61.6603C48.0755 60.3174 49.1636 59.2288 50.506 59.2288H54.3855C55.728 59.2288 56.8164 60.3174 56.8164 61.6606V86.1062C56.8164 86.6715 57.2745 87.1299 57.8396 87.1299H64.5337C65.0991 87.1299 65.5572 86.6715 65.5572 86.1062V61.6606C65.5572 60.3174 66.6456 59.2288 67.9881 59.2288H71.8676C73.21 59.2288 74.2981 60.3174 74.2981 61.6603V86.1062C74.2981 86.6715 74.7565 87.1299 75.3217 87.1299H90.7566C91.322 87.1299 91.7802 86.6715 91.7802 86.1062V60.2526C91.7802 59.6872 91.322 59.2288 90.7566 59.2288Z" fill="white"/>
</g>
<defs>
<clipPath id="clip0_0_15">
<rect width="122.374" height="122.374" fill="white"/>
</clipPath>
</defs>
</svg>
